<svg width="240" height="60" viewBox="0 0 240 60" fill="none" xmlns="http://www.w3.org/2000/svg">
  <!-- Building icon with chart -->
  <rect x="8" y="24" width="8" height="28" fill="#0056B3" rx="1"/>
  <rect x="18" y="16" width="10" height="36" fill="#17A2B8" rx="1"/>
  <rect x="30" y="8" width="12" height="44" fill="#0056B3" rx="1"/>
  
  <!-- Chart arrow inside -->
  <path d="M20 40 L24 35 L28 38 L32 30" stroke="white" stroke-width="2" stroke-linecap="round" stroke-linejoin="round" fill="none"/>
  <path d="M30 30 L32 30 L32 32" stroke="white" stroke-width="2" stroke-linecap="round" stroke-linejoin="round" fill="none"/>
  
  <!-- Square frame around buildings -->
  <rect x="4" y="4" width="42" height="52" stroke="#0056B3" stroke-width="4" fill="none" rx="2"/>
  <rect x="20" y="4" width="26" height="52" fill="#0056B3"/>
  
  <!-- White square in center -->
  <rect x="22" y="28" width="20" height="20" fill="white" rx="1"/>
  
  <!-- Teal chart arrow -->
  <path d="M26 42 L30 38 L34 40 L38 34" stroke="#17A2B8" stroke-width="2.5" stroke-linecap="round" stroke-linejoin="round" fill="none"/>
  <path d="M36 34 L38 34 L38 36" stroke="#17A2B8" stroke-width="2.5" stroke-linecap="round" stroke-linejoin="round" fill="none"/>
  
  <!-- Text: I-PROJECT -->
  <text x="60" y="42" font-family="Arial, sans-serif" font-size="32" font-weight="700" fill="#0056B3" letter-spacing="-1">I-PROJECT</text>
</svg>